<svg width="200" height="200" viewBox="0 0 200 200" fill="none" xmlns="http://www.w3.org/2000/svg">
<g filter="url(#filter0_i_1086_4556)">
<g clip-path="url(#clip0_1086_4556)">
<mask id="mask0_1086_4556" style="mask-type:luminance" maskUnits="userSpaceOnUse" x="0" y="0" width="200" height="200">
<path d="M200 0H0V200H200V0Z" fill="white"/>
</mask>
<g mask="url(#mask0_1086_4556)">
<path d="M74.9974 16.6641C53.1641 16.6641 35.4141 34.4141 35.4141 56.2474C35.4141 77.6641 52.1641 94.9974 73.9974 95.7474C74.6641 95.6641 75.3307 95.6641 75.8307 95.7474C75.9974 95.7474 76.0807 95.7474 76.2474 95.7474C76.3307 95.7474 76.3307 95.7474 76.4141 95.7474C97.7474 94.9974 114.497 77.6641 114.581 56.2474C114.581 34.4141 96.8307 16.6641 74.9974 16.6641Z" fill="#FF4500"/>
<path d="M117.332 117.914C94.0824 102.414 56.1654 102.414 32.7487 117.914C22.1654 124.997 16.332 134.581 16.332 144.831C16.332 155.081 22.1654 164.581 32.6654 171.581C44.332 179.414 59.6654 183.331 74.9987 183.331C90.3324 183.331 105.666 179.414 117.332 171.581C127.832 164.497 133.666 154.997 133.666 144.664C133.582 134.414 127.832 124.914 117.332 117.914Z" fill="#FF4500"/>
<path d="M166.582 61.1668C167.915 77.3335 156.415 91.5002 140.499 93.4168C140.415 93.4168 140.415 93.4168 140.332 93.4168H140.082C139.582 93.4168 139.082 93.4168 138.665 93.5835C130.582 94.0002 123.165 91.4168 117.582 86.6668C126.165 79.0002 131.082 67.5002 130.082 55.0002C129.499 48.2502 127.165 42.0835 123.665 36.8335C126.832 35.2502 130.499 34.2502 134.249 33.9168C150.582 32.5002 165.165 44.6668 166.582 61.1668Z" fill="#FF4500"/>
<path d="M183.249 138.251C182.582 146.334 177.415 153.334 168.749 158.084C160.415 162.667 149.915 164.834 139.499 164.584C145.499 159.167 148.999 152.417 149.665 145.251C150.499 134.917 145.582 125.001 135.749 117.084C130.165 112.667 123.665 109.167 116.582 106.584C134.999 101.251 158.165 104.834 172.415 116.334C180.082 122.501 183.999 130.251 183.249 138.251Z" fill="#FF4500"/>
</g>
</g>
</g>
<defs>
<filter id="filter0_i_1086_4556" x="0" y="-4" width="212" height="204" filterUnits="userSpaceOnUse" color-interpolation-filters="sRGB">
<feFlood flood-opacity="0" result="BackgroundImageFix"/>
<feBlend mode="normal" in="SourceGraphic" in2="BackgroundImageFix" result="shape"/>
<feColorMatrix in="SourceAlpha" type="matrix" values="0 0 0 0 0 0 0 0 0 0 0 0 0 0 0 0 0 0 127 0" result="hardAlpha"/>
<feOffset dx="12" dy="-4"/>
<feGaussianBlur stdDeviation="6"/>
<feComposite in2="hardAlpha" operator="arithmetic" k2="-1" k3="1"/>
<feColorMatrix type="matrix" values="0 0 0 0 1 0 0 0 0 1 0 0 0 0 1 0 0 0 0.4 0"/>
<feBlend mode="normal" in2="shape" result="effect1_innerShadow_1086_4556"/>
</filter>
<clipPath id="clip0_1086_4556">
<rect width="200" height="200" fill="white"/>
</clipPath>
</defs>
</svg>
