<svg width="200" height="200" viewBox="0 0 200 200" fill="none" xmlns="http://www.w3.org/2000/svg">
<g filter="url(#filter0_i_1086_4572)">
<g clip-path="url(#clip0_1086_4572)">
<mask id="mask0_1086_4572" style="mask-type:luminance" maskUnits="userSpaceOnUse" x="0" y="0" width="200" height="200">
<path d="M200 0H0V200H200V0Z" fill="white"/>
</mask>
<g mask="url(#mask0_1086_4572)">
<path d="M135.419 187.495C143.473 187.495 150.003 180.966 150.003 172.911C150.003 164.857 143.473 158.328 135.419 158.328C127.365 158.328 120.836 164.857 120.836 172.911C120.836 180.966 127.365 187.495 135.419 187.495Z" fill="#FF4500"/>
<path d="M68.7513 187.495C76.8055 187.495 83.3346 180.966 83.3346 172.911C83.3346 164.857 76.8055 158.328 68.7513 158.328C60.6971 158.328 54.168 164.857 54.168 172.911C54.168 180.966 60.6971 187.495 68.7513 187.495Z" fill="#FF4500"/>
<path d="M40.3346 32.8307L38.668 53.2474C38.3346 57.1641 41.418 60.4141 45.3346 60.4141H172.918C176.418 60.4141 179.335 57.7474 179.585 54.2474C180.668 39.4974 169.418 27.4974 154.668 27.4974H52.2513C51.418 23.8307 49.7513 20.3307 47.168 17.4141C43.0013 12.9974 37.168 10.4141 31.168 10.4141H16.668C13.2513 10.4141 10.418 13.2474 10.418 16.6641C10.418 20.0807 13.2513 22.9141 16.668 22.9141H31.168C33.7513 22.9141 36.168 23.9974 37.918 25.8307C39.668 27.7474 40.5013 30.2474 40.3346 32.8307Z" fill="#FF4500"/>
<path d="M170.92 72.9141H43.0864C39.5864 72.9141 36.753 75.5807 36.4197 78.9974L33.4197 115.247C32.253 129.497 43.4197 141.664 57.6697 141.664H150.337C162.837 141.664 173.837 131.414 174.753 118.914L177.503 79.9974C177.837 76.1641 174.837 72.9141 170.92 72.9141Z" fill="#FF4500"/>
</g>
</g>
</g>
<defs>
<filter id="filter0_i_1086_4572" x="0" y="-4" width="212" height="204" filterUnits="userSpaceOnUse" color-interpolation-filters="sRGB">
<feFlood flood-opacity="0" result="BackgroundImageFix"/>
<feBlend mode="normal" in="SourceGraphic" in2="BackgroundImageFix" result="shape"/>
<feColorMatrix in="SourceAlpha" type="matrix" values="0 0 0 0 0 0 0 0 0 0 0 0 0 0 0 0 0 0 127 0" result="hardAlpha"/>
<feOffset dx="12" dy="-4"/>
<feGaussianBlur stdDeviation="6"/>
<feComposite in2="hardAlpha" operator="arithmetic" k2="-1" k3="1"/>
<feColorMatrix type="matrix" values="0 0 0 0 1 0 0 0 0 1 0 0 0 0 1 0 0 0 0.4 0"/>
<feBlend mode="normal" in2="shape" result="effect1_innerShadow_1086_4572"/>
</filter>
<clipPath id="clip0_1086_4572">
<rect width="200" height="200" fill="white"/>
</clipPath>
</defs>
</svg>
