<svg width="19" height="22" viewBox="0 0 19 22" fill="none" xmlns="http://www.w3.org/2000/svg">
<path d="M14.4936 8.19716L16.3538 8.52786C16.8471 8.61556 17.2771 8.89399 17.5491 9.30188C17.8211 9.70978 17.9128 10.2137 17.8041 10.7029L15.8368 19.5557C15.7281 20.0448 15.4279 20.4791 15.0022 20.7629C14.5765 21.0468 14.0601 21.157 13.5668 21.0693L2.40589 19.0851C1.91254 18.9974 1.48259 18.719 1.2106 18.3111C0.93862 17.9032 0.846887 17.3993 0.955586 16.9101L2.92287 8.05733C3.03157 7.56818 3.3318 7.13391 3.7575 6.85005C4.18321 6.56619 4.69953 6.45599 5.19287 6.54369L7.05303 6.87439" stroke="#474747" stroke-width="1.75" stroke-linecap="round" stroke-linejoin="round"/>
<path d="M15.1527 5.24573L12.2521 0.895688L7.71206 3.92296" stroke="#474747" stroke-width="1.75" stroke-linecap="round" stroke-linejoin="round"/>
<path d="M9.45506 13.4843L12.2523 0.896805" stroke="#474747" stroke-width="1.75" stroke-linecap="round" stroke-linejoin="round"/>
</svg>
