<svg width="24" height="24" viewBox="0 0 24 24" fill="none" xmlns="http://www.w3.org/2000/svg">
<g clip-path="url(#clip0_1086_4772)">
<path d="M12 24C18.6274 24 24 18.6274 24 12C24 5.37258 18.6274 0 12 0C5.37258 0 0 5.37258 0 12C0 18.6274 5.37258 24 12 24Z" fill="#FF4500"/>
<path d="M20.0042 11.9977C20.0066 12.1621 19.9862 12.3262 19.943 12.4849C19.8998 12.6436 19.8344 12.7957 19.7486 12.9361C19.6631 13.0765 19.5581 13.2043 19.4369 13.3156C19.3157 13.4269 19.1795 13.5205 19.0322 13.5937C19.0355 13.6375 19.0382 13.6816 19.0397 13.7257C19.0433 13.8136 19.0433 13.9017 19.0397 13.9897C19.0382 14.0338 19.0355 14.0779 19.0322 14.1217C19.0322 16.8097 15.9002 18.9937 12.0362 18.9937C8.17218 18.9937 5.04018 16.8097 5.04018 14.1217C5.03688 14.0779 5.03418 14.0338 5.03268 13.9897C5.02907 13.9017 5.02907 13.8136 5.03268 13.7257C5.03418 13.6816 5.03688 13.6375 5.04018 13.5937C4.80941 13.4876 4.60444 13.3326 4.43946 13.1395C4.27448 12.9464 4.15342 12.7198 4.08468 12.4753C4.01605 12.2307 4.00143 11.9741 4.04183 11.7232C4.08224 11.4724 4.1767 11.2334 4.31868 11.0227C4.46053 10.812 4.64652 10.6348 4.86373 10.5032C5.08094 10.3716 5.32419 10.2888 5.57658 10.2607C5.82901 10.2324 6.08456 10.2593 6.32555 10.3396C6.56653 10.4199 6.78717 10.5516 6.97218 10.7257C7.31563 10.4929 7.67547 10.2852 8.04888 10.1044C8.42238 9.92378 8.80848 9.77018 9.20418 9.64538C9.59988 9.52058 10.0043 9.42488 10.4138 9.35858C10.8233 9.29228 11.2373 9.25598 11.6522 9.24968L12.5402 5.08568C12.5501 5.03738 12.5696 4.99178 12.5975 4.95098C12.6251 4.91048 12.6608 4.87568 12.7019 4.84898C12.7433 4.82228 12.7895 4.80398 12.8381 4.79498C12.8864 4.78628 12.9362 4.78718 12.9842 4.79768L15.9242 5.38568C16.2209 4.87598 16.8437 4.65758 17.3936 4.86998C17.9435 5.08238 18.2579 5.66288 18.1349 6.23948C18.0122 6.81608 17.4884 7.21808 16.8998 7.18778C16.3109 7.15748 15.8312 6.70388 15.7682 6.11768L13.2002 5.57768L12.4202 9.32168C12.83 9.33038 13.2389 9.36878 13.6433 9.43628C14.4531 9.57127 15.2392 9.82246 15.9773 10.1821C16.3459 10.3615 16.7011 10.5672 17.0402 10.7977C17.284 10.5636 17.5903 10.4051 17.9222 10.3414C18.2541 10.2774 18.5974 10.3108 18.9107 10.4377C19.224 10.5645 19.494 10.7792 19.688 11.056C19.882 11.3328 19.9919 11.6598 20.0042 11.9977ZM8.09538 13.657C8.15598 13.8025 8.24418 13.9348 8.35578 14.0461C8.46708 14.1577 8.59938 14.2459 8.74488 14.3065C8.89052 14.3667 9.04658 14.3977 9.20418 14.3977C9.68958 14.3977 10.127 14.1052 10.313 13.657C10.4987 13.2085 10.3958 12.6925 10.0526 12.3493C9.70938 12.0061 9.19338 11.9032 8.74488 12.0889C8.29668 12.2749 8.00418 12.7123 8.00418 13.1977C8.00418 13.3552 8.03508 13.5112 8.09538 13.657ZM14.9684 16.5376C15.0299 16.4776 15.065 16.3957 15.0662 16.3099C15.0674 16.2238 15.0341 16.141 14.9741 16.0795C14.9141 16.018 14.8322 15.9829 14.7464 15.9817C14.6603 15.9805 14.5775 16.0138 14.5082 16.0657C14.3277 16.1951 14.1367 16.309 13.937 16.4062C13.7373 16.5034 13.5298 16.5836 13.3166 16.6459C13.1036 16.708 12.8855 16.7521 12.665 16.7776C12.4442 16.8031 12.2219 16.8097 12.0002 16.7977C11.7788 16.8076 11.5568 16.7986 11.3369 16.771C11.1169 16.7436 10.8997 16.6975 10.6877 16.633C10.4753 16.5688 10.2692 16.4866 10.0709 16.3876C9.87258 16.2886 9.68298 16.1728 9.50418 16.0417C9.44208 15.9907 9.36318 15.9646 9.28278 15.9685C9.20238 15.9724 9.12648 16.0063 9.06948 16.063C9.01278 16.12 8.97888 16.1959 8.97498 16.2763C8.97108 16.3567 8.99718 16.4356 9.04818 16.4977C9.25908 16.6567 9.48318 16.7971 9.71808 16.9177C9.95298 17.0383 10.1981 17.1382 10.4501 17.2168C10.7021 17.2954 10.9604 17.3521 11.2223 17.3866C11.4842 17.4208 11.7485 17.4325 12.0122 17.4217C12.2759 17.4325 12.5402 17.4208 12.8021 17.3866C13.3266 17.3176 13.8354 17.159 14.3063 16.9177C14.5412 16.7971 14.7653 16.6567 14.9762 16.4977L14.9684 16.5376ZM14.7482 14.4937C14.9108 14.4955 15.0722 14.464 15.2225 14.4016C15.3728 14.3389 15.5087 14.2465 15.6221 14.1298C15.7355 14.0131 15.8237 13.8745 15.8819 13.7224C15.9401 13.5705 15.9668 13.4082 15.9602 13.2457C15.9602 12.7603 15.6677 12.3229 15.2195 12.1369C14.771 11.9512 14.255 12.0541 13.9118 12.3973C13.5686 12.7405 13.4657 13.2565 13.6514 13.705C13.8374 14.1532 14.2748 14.4457 14.7602 14.4457L14.7482 14.4937Z" fill="white"/>
</g>
<defs>
<clipPath id="clip0_1086_4772">
<rect width="24" height="24" fill="white"/>
</clipPath>
</defs>
</svg>
