<svg width="60" height="60" viewBox="0 0 60 60" fill="none" xmlns="http://www.w3.org/2000/svg">
<g clip-path="url(#clip0_1086_4518)">
<path d="M30 60C46.5685 60 60 46.5685 60 30C60 13.4315 46.5685 0 30 0C13.4315 0 0 13.4315 0 30C0 46.5685 13.4315 60 30 60Z" fill="#FF4500"/>
<path d="M50.0085 29.9981C50.0145 30.4091 49.9635 30.8193 49.8555 31.2161C49.7475 31.6128 49.584 31.9931 49.3695 32.3441C49.1557 32.6951 48.8932 33.0146 48.5902 33.2928C48.2872 33.5711 47.9467 33.8051 47.5785 33.9881C47.5867 34.0976 47.5935 34.2078 47.5972 34.3181C47.6063 34.538 47.6063 34.7582 47.5972 34.9781C47.5935 35.0883 47.5867 35.1986 47.5785 35.3081C47.5785 42.0281 39.7485 47.4881 30.0885 47.4881C20.4285 47.4881 12.5985 42.0281 12.5985 35.3081C12.5902 35.1986 12.5835 35.0883 12.5797 34.9781C12.5707 34.7582 12.5707 34.538 12.5797 34.3181C12.5835 34.2078 12.5902 34.0976 12.5985 33.9881C12.0216 33.7229 11.5091 33.3355 11.0967 32.8527C10.6842 32.37 10.3816 31.8034 10.2097 31.1921C10.0382 30.5806 10.0016 29.939 10.1026 29.312C10.2036 28.6849 10.4398 28.0873 10.7947 27.5606C11.1494 27.034 11.6143 26.5908 12.1574 26.2618C12.7004 25.9329 13.3085 25.726 13.9395 25.6556C14.5706 25.5849 15.2095 25.6522 15.8119 25.8529C16.4144 26.0537 16.966 26.383 17.4285 26.8181C18.2871 26.2361 19.1867 25.717 20.1202 25.2648C21.054 24.8133 22.0192 24.4293 23.0085 24.1173C23.9977 23.8053 25.0087 23.5661 26.0325 23.4003C27.0562 23.2346 28.0912 23.1438 29.1285 23.1281L31.3485 12.7181C31.3732 12.5973 31.422 12.4833 31.4917 12.3813C31.5607 12.2801 31.65 12.1931 31.7527 12.1263C31.8562 12.0596 31.9717 12.0138 32.0932 11.9913C32.214 11.9696 32.3385 11.9718 32.4585 11.9981L39.8085 13.4681C40.5502 12.1938 42.1072 11.6478 43.482 12.1788C44.8567 12.7098 45.6427 14.1611 45.3352 15.6026C45.0285 17.0441 43.719 18.0491 42.2475 17.9733C40.7752 17.8976 39.576 16.7636 39.4185 15.2981L32.9985 13.9481L31.0485 23.3081C32.073 23.3298 33.0952 23.4258 34.1062 23.5946C36.1308 23.9321 38.0961 24.5601 39.9412 25.4591C40.8628 25.9076 41.7509 26.4219 42.5985 26.9981C43.208 26.413 43.9738 26.0168 44.8035 25.8573C45.6332 25.6974 46.4915 25.781 47.2747 26.0981C48.0581 26.415 48.733 26.9519 49.218 27.6438C49.7032 28.3359 49.9777 29.1535 50.0085 29.9981ZM20.2365 34.1463C20.388 34.5101 20.6085 34.8408 20.8875 35.1191C21.1657 35.3981 21.4965 35.6186 21.8602 35.7701C22.2243 35.9207 22.6145 35.9981 23.0085 35.9981C24.222 35.9981 25.3155 35.2668 25.7805 34.1463C26.2447 33.0251 25.9875 31.7351 25.1295 30.8771C24.2715 30.0191 22.9815 29.7618 21.8602 30.2261C20.7397 30.6911 20.0085 31.7846 20.0085 32.9981C20.0085 33.3918 20.0857 33.7818 20.2365 34.1463ZM37.419 41.3478C37.5727 41.1978 37.6605 40.9931 37.6635 40.7786C37.6665 40.5633 37.5832 40.3563 37.4332 40.2026C37.2832 40.0488 37.0785 39.9611 36.864 39.9581C36.6487 39.9551 36.4417 40.0383 36.2685 40.1681C35.8174 40.4917 35.3397 40.7764 34.8405 41.0193C34.3413 41.2624 33.8224 41.4629 33.2895 41.6186C32.757 41.7738 32.2117 41.8841 31.6605 41.9478C31.1085 42.0116 30.5527 42.0281 29.9985 41.9981C29.445 42.0228 28.89 42.0003 28.3402 41.9313C27.7904 41.863 27.2474 41.7476 26.7172 41.5863C26.1862 41.4258 25.671 41.2203 25.1752 40.9728C24.6795 40.7253 24.2055 40.4358 23.7585 40.1081C23.6032 39.9806 23.406 39.9153 23.205 39.9251C23.004 39.9348 22.8142 40.0196 22.6717 40.1613C22.53 40.3038 22.4452 40.4936 22.4355 40.6946C22.4257 40.8956 22.491 41.0928 22.6185 41.2481C23.1457 41.6456 23.706 41.9966 24.2932 42.2981C24.8805 42.5996 25.4932 42.8493 26.1232 43.0458C26.7532 43.2423 27.399 43.3841 28.0537 43.4703C28.7085 43.5558 29.3692 43.5851 30.0285 43.5581C30.6877 43.5851 31.3485 43.5558 32.0032 43.4703C33.3146 43.2979 34.5866 42.9013 35.7637 42.2981C36.351 41.9966 36.9112 41.6456 37.4385 41.2481L37.419 41.3478ZM36.8685 36.2381C37.275 36.2426 37.6785 36.1638 38.0542 36.0078C38.43 35.8511 38.7697 35.6201 39.0532 35.3283C39.3367 35.0366 39.5572 34.6901 39.7027 34.3098C39.8483 33.93 39.915 33.5245 39.8985 33.1181C39.8985 31.9046 39.1672 30.8111 38.0467 30.3461C36.9255 29.8818 35.6355 30.1391 34.7775 30.9971C33.9195 31.8551 33.6622 33.1451 34.1265 34.2663C34.5915 35.3868 35.685 36.1181 36.8985 36.1181L36.8685 36.2381Z" fill="white"/>
</g>
<defs>
<clipPath id="clip0_1086_4518">
<rect width="60" height="60" fill="white"/>
</clipPath>
</defs>
</svg>
