<svg width="12" height="90" viewBox="0 0 12 90" fill="none" xmlns="http://www.w3.org/2000/svg">
<g clip-path="url(#clip0_1086_4830)">
<mask id="mask0_1086_4830" style="mask-type:luminance" maskUnits="userSpaceOnUse" x="0" y="0" width="12" height="12">
<path d="M12 0H0V12H12V0Z" fill="white"/>
</mask>
<g mask="url(#mask0_1086_4830)">
<path d="M7.5 11.375H4.5C1.785 11.375 0.625 10.215 0.625 7.5V4.5C0.625 1.785 1.785 0.625 4.5 0.625H7.5C10.215 0.625 11.375 1.785 11.375 4.5V7.5C11.375 10.215 10.215 11.375 7.5 11.375ZM4.5 1.375C2.195 1.375 1.375 2.195 1.375 4.5V7.5C1.375 9.805 2.195 10.625 4.5 10.625H7.5C9.805 10.625 10.625 9.805 10.625 7.5V4.5C10.625 2.195 9.805 1.375 7.5 1.375H4.5Z" fill="black"/>
<path d="M5.28873 7.78687C5.18873 7.78687 5.09373 7.74687 5.02373 7.67687L3.60875 6.26187C3.46375 6.11687 3.46375 5.87687 3.60875 5.73187C3.75375 5.58687 3.99375 5.58687 4.13875 5.73187L5.28873 6.88187L7.85873 4.31188C8.00373 4.16688 8.24373 4.16688 8.38873 4.31188C8.53373 4.45687 8.53373 4.69687 8.38873 4.84187L5.55373 7.67687C5.48373 7.74687 5.38873 7.78687 5.28873 7.78687Z" fill="black"/>
</g>
</g>
<g clip-path="url(#clip1_1086_4830)">
<mask id="mask1_1086_4830" style="mask-type:luminance" maskUnits="userSpaceOnUse" x="0" y="26" width="12" height="12">
<path d="M12 26H0V38H12V26Z" fill="white"/>
</mask>
<g mask="url(#mask1_1086_4830)">
<path d="M7.5 37.375H4.5C1.785 37.375 0.625 36.215 0.625 33.5V30.5C0.625 27.785 1.785 26.625 4.5 26.625H7.5C10.215 26.625 11.375 27.785 11.375 30.5V33.5C11.375 36.215 10.215 37.375 7.5 37.375ZM4.5 27.375C2.195 27.375 1.375 28.195 1.375 30.5V33.5C1.375 35.805 2.195 36.625 4.5 36.625H7.5C9.805 36.625 10.625 35.805 10.625 33.5V30.5C10.625 28.195 9.805 27.375 7.5 27.375H4.5Z" fill="black"/>
<path d="M5.28873 33.7869C5.18873 33.7869 5.09373 33.7469 5.02373 33.6769L3.60875 32.2619C3.46375 32.1169 3.46375 31.8769 3.60875 31.7319C3.75375 31.5869 3.99375 31.5869 4.13875 31.7319L5.28873 32.8819L7.85873 30.3119C8.00373 30.1669 8.24373 30.1669 8.38873 30.3119C8.53373 30.4569 8.53373 30.6969 8.38873 30.8419L5.55373 33.6769C5.48373 33.7469 5.38873 33.7869 5.28873 33.7869Z" fill="black"/>
</g>
</g>
<g clip-path="url(#clip2_1086_4830)">
<mask id="mask2_1086_4830" style="mask-type:luminance" maskUnits="userSpaceOnUse" x="0" y="52" width="12" height="12">
<path d="M12 52H0V64H12V52Z" fill="white"/>
</mask>
<g mask="url(#mask2_1086_4830)">
<path d="M7.5 63.375H4.5C1.785 63.375 0.625 62.215 0.625 59.5V56.5C0.625 53.785 1.785 52.625 4.5 52.625H7.5C10.215 52.625 11.375 53.785 11.375 56.5V59.5C11.375 62.215 10.215 63.375 7.5 63.375ZM4.5 53.375C2.195 53.375 1.375 54.195 1.375 56.5V59.5C1.375 61.805 2.195 62.625 4.5 62.625H7.5C9.805 62.625 10.625 61.805 10.625 59.5V56.5C10.625 54.195 9.805 53.375 7.5 53.375H4.5Z" fill="black"/>
<path d="M5.28873 59.7869C5.18873 59.7869 5.09373 59.7469 5.02373 59.6769L3.60875 58.2619C3.46375 58.1169 3.46375 57.8769 3.60875 57.7319C3.75375 57.5869 3.99375 57.5869 4.13875 57.7319L5.28873 58.8819L7.85873 56.3119C8.00373 56.1669 8.24373 56.1669 8.38873 56.3119C8.53373 56.4569 8.53373 56.6969 8.38873 56.8419L5.55373 59.6769C5.48373 59.7469 5.38873 59.7869 5.28873 59.7869Z" fill="black"/>
</g>
</g>
<g clip-path="url(#clip3_1086_4830)">
<mask id="mask3_1086_4830" style="mask-type:luminance" maskUnits="userSpaceOnUse" x="0" y="78" width="12" height="12">
<path d="M12 78H0V90H12V78Z" fill="white"/>
</mask>
<g mask="url(#mask3_1086_4830)">
<path d="M7.5 89.375H4.5C1.785 89.375 0.625 88.215 0.625 85.5V82.5C0.625 79.785 1.785 78.625 4.5 78.625H7.5C10.215 78.625 11.375 79.785 11.375 82.5V85.5C11.375 88.215 10.215 89.375 7.5 89.375ZM4.5 79.375C2.195 79.375 1.375 80.195 1.375 82.5V85.5C1.375 87.805 2.195 88.625 4.5 88.625H7.5C9.805 88.625 10.625 87.805 10.625 85.5V82.5C10.625 80.195 9.805 79.375 7.5 79.375H4.5Z" fill="black"/>
<path d="M5.28873 85.7869C5.18873 85.7869 5.09373 85.7469 5.02373 85.6769L3.60875 84.2619C3.46375 84.1169 3.46375 83.8769 3.60875 83.7319C3.75375 83.5869 3.99375 83.5869 4.13875 83.7319L5.28873 84.8819L7.85873 82.3119C8.00373 82.1669 8.24373 82.1669 8.38873 82.3119C8.53373 82.4569 8.53373 82.6969 8.38873 82.8419L5.55373 85.6769C5.48373 85.7469 5.38873 85.7869 5.28873 85.7869Z" fill="black"/>
</g>
</g>
<defs>
<clipPath id="clip0_1086_4830">
<rect width="12" height="12" fill="white"/>
</clipPath>
<clipPath id="clip1_1086_4830">
<rect width="12" height="12" fill="white" transform="translate(0 26)"/>
</clipPath>
<clipPath id="clip2_1086_4830">
<rect width="12" height="12" fill="white" transform="translate(0 52)"/>
</clipPath>
<clipPath id="clip3_1086_4830">
<rect width="12" height="12" fill="white" transform="translate(0 78)"/>
</clipPath>
</defs>
</svg>
